<?xml version="1.0" encoding="utf-8"?>
<!-- Generator: Adobe Illustrator 15.1.0, SVG Export Plug-In . SVG Version: 6.00 Build 0)  -->
<!DOCTYPE svg PUBLIC "-//W3C//DTD SVG 1.1//EN" "http://www.w3.org/Graphics/SVG/1.1/DTD/svg11.dtd">
<svg version="1.1" id="Layer_1" xmlns="http://www.w3.org/2000/svg" xmlns:xlink="http://www.w3.org/1999/xlink" x="0px" y="0px"
	 width="226.77px" height="201.493px" viewBox="0 0 226.77 201.493" enable-background="new 0 0 226.77 201.493"
	 xml:space="preserve">
<g>
	<g>
		<g id="_x39_EnyCg_12_">
			<g>
				<path fill-rule="evenodd" clip-rule="evenodd" fill="#233E99" d="M114.181,21.804c0.058,0.737-0.397,0.881-0.565,1.352
					c1.072,0.067,2.04,0.618,2.923,1.385c1.034,0.11,0.92-1.118,1.515-1.516c0.761-0.081,1.063,0.237,1.604,0.352
					c-0.021-0.78-0.596-1.076-0.31-2.118c0.964-0.771,2.644-0.106,3.957,0.06c0.421,0.36,0.336,1.156,0.575,1.673
					c1.152,0.25,1.644-0.271,2.794-0.025c0.621,3.118-0.714,5.024-0.301,7.201c-3.668,0.644-8.601-0.051-10.056-2.613
					c-2.364,0.678-4.403,0.491-6.791,0.428c-3.372-0.089-6.312,1.169-9.654,1.376c-0.644,0.042-1.404-0.246-2.084-0.152
					c-0.796,0.102-1.563,0.669-2.387,0.75c-0.557,0.06-1.305-0.229-1.854-0.135c-3.764,0.661-7.409,3.71-11.289,4.516
					c-2.463,0.517-4.751-0.466-5.983,2.118c-3.423,0.305-3.779,4.173-5.382,6.591c-7.769,1.889-9.724,10.531-17.255,12.695
					c1.332,2.732-1.555,5.486-4.175,5.977c-0.068,1.178-0.078,2.427-0.688,2.978c-0.868,0.466-1.878-1.487-2.567,0.042
					c0.301,1.084,1.612-0.051,2.285,0.635c0.61,2.482-1.771,3.414-2.91,4.676c-0.619,0.021-0.117-0.911-0.877-0.767
					c-0.523,0.148-0.959,0.398-1.013,1.093c-0.233,1.068,0.985,0.886,1.286,1.496c-0.144,1.948-1.932,2.69-1.288,4.791
					c-0.529,1.161-2.093,1.567-1.417,3.393c-2.459,0.729-1.417,4.007-2.982,5.6c1.468,1.144,1.923,3.474,0.119,4.672
					c0.713,4.126-1.834,9.806-0.021,12.81c-0.04,1.131-0.112,2.219-0.671,2.749c0.201,1.601,0.483,3.847-0.148,5.116
					c0.008,0.717,0.425,1.076,0.574,1.67c-1.165,3.258,1.229,5.842,0.771,8.446c2.186,5.634,2.927,12.513,6.17,17.236
					c1.061,2.707,2.561,4.969,3.866,7.511c1.74,3.371,4.826,5.917,6.531,9.34c-1.946,0.589-2.92-1.986-4.638-0.347
					c-3.793-1.644-5.535-5.062-7.288-8.464c0.173-0.805,0.458-1.482,0.421-2.529c-1.207-0.334-2.44-0.648-3.159-1.406
					c-3.282-5.913-7.016-11.441-7.124-20.1c0.04-0.877,1.383-0.241,1.476-1.055c0.117-1.182-0.635-2.033-1.75-1.525
					c0.917-1.597-0.324-2.211-0.932-3.101c1.286-1.14,1.61-5.667,1.263-7.595c-1.659-0.123-0.339,1.872-1.33,2.229
					c-1.284-1.322,0.065-2.517,0.078-4.186c0.023-2.555-2.103-5.566,0.536-7.18c-1.042-2.14-1.613-5.995-0.521-8.663
					c0.612-0.398,0.898,0.258,1.639-0.11c0.216-1.631,0.1-2.974-1.398-3.135c-0.29-2.99,0.413-6.862,2.458-7.972
					c0.198-0.822-0.186-1.14-0.342-1.652c0.369-1.084,1.404-1.394,2.24-1.932c-0.082-0.915-1.312-1.084-0.537-2.135
					c0.871,0.11,0.572,1.241,1.283,1.487c2.101-1.716-0.428-5.664,0.871-8.553c0.701-0.534,2.582,0.31,3.281-0.22
					c0.563-0.436,0.652-1.423,1.083-2.016c0.084-1.084-1.22-0.979-1.751-1.529c0.875-1.753,2.529-2.605,2.713-5.155
					c1.47-1.436,3.236-1.207,5.039-1.957c0.53-1.902-0.529-2.431-0.898-3.562c0.676-2.147,2.951-2.448,4.251-3.876
					c0.108-0.678-0.231-1.359-0.079-2.101c0.229-1.11,3.234-4.329,4.569-5.02c0.332-0.169,0.94,0.042,1.175-0.144
					c0.597-0.487,0.712-1.44,1.313-2c0.741-0.682,2.069-0.894,2.9-1.415c2.473-1.546,4.44-3.749,6.406-4.647
					c2.224,0.178,4.255,0.525,5.723,1.355c0.292-1.123-1.182-0.716-0.788-1.923c1.089-0.915,2.701-1.225,3.234-2.792
					c1.885-0.246,3.723-0.538,4.363-2.232c3.425-0.979,7.088-1.673,8.953-4.465c1.83-1,3.764-0.754,5.698-1.436
					c0.546-0.191,0.746-0.813,1.245-1.072c2.072-1.063,4.577-1.347,8-1.034C108.426,18.098,112.854,20.22,114.181,21.804z
					 M44.941,63.012c0.938,0.165,1.48-0.131,1.477-1.055c-0.159-0.513-0.511-0.864-1.339-0.801
					C44.712,61.47,44.628,62.648,44.941,63.012z"/>
				<path fill-rule="evenodd" clip-rule="evenodd" fill="#233E99" d="M118.171,21.402c-0.038,1.216-1.109,1.233-1.974,1.482
					c-0.105-0.343-0.319-0.593-0.644-0.746C115.253,20.466,117.792,20.034,118.171,21.402z"/>
				<path fill-rule="evenodd" clip-rule="evenodd" fill="#233E99" d="M135.986,26.223c0.022,1.114-0.846,1.199-1.297,1.771
					c-1.457-2.986-4.238-0.674-6.667-1.199c-0.322-0.792-0.102-1.788,0.402-2.3c1.474-0.187,1.45,0.923,2.232,1.334
					C132.098,24.414,134.946,24.502,135.986,26.223z"/>
				<path fill-rule="evenodd" clip-rule="evenodd" fill="#233E99" d="M45.079,61.157c0.828-0.063,1.18,0.288,1.339,0.801
					c0.004,0.923-0.538,1.22-1.477,1.055C44.628,62.648,44.712,61.47,45.079,61.157z"/>
				<path fill-rule="evenodd" clip-rule="evenodd" fill="#233E99" d="M63.112,163.151c0.877,0.042,1.21,0.551,1.302,1.262
					c-0.425,0.178-0.636,0.606-1.422,0.364C62.682,164.443,62.758,163.439,63.112,163.151z"/>
				<path fill-rule="evenodd" clip-rule="evenodd" fill="#233E99" d="M141.006,30.793c-1.748-1.639-3.684,0.733-6.043-0.22
					c-0.854,1.275-4.222-0.364-4.971,1.029c3.628,1.86,7.142,3.825,12.007,4.622c2.307,1.555,4.547,3.168,8.116,3.634
					c-0.199,0.822,0.187,1.144,0.343,1.656c0.97,0.369,1.146,0.068,2.315,0.169c2.325,2.919,7.178,3.652,9.033,6.964
					c5.259,0.623,4.949,7.671,9.291,9.781c1.063,2.986,3.385,4.893,5.046,7.366c0.152,0.661,0.468,1.187,0.557,1.906
					c4.401,4.439,5.166,12.268,6.692,19.604c2.14,10.276,2.741,25.492-0.591,36.064c0.67,4.609-2.272,9.015-2.673,14.014
					c-2.149,1.66-2.503,5.074-3.814,7.408c-1.368,2.44-3.543,5.532-5.24,7.765c-0.87,1.152-2.151,1.979-3.27,3.249
					c-2.843,3.24-5.09,6.926-8.172,9.646c-0.993,0.873-2.472,2.008-3.949,2.965c-2.286,1.483-4.956,3.55-7.066,4.135
					c-1.059,0.292-2.088,0.102-3.062,0.475c-0.811,0.309-1.506,1.127-2.439,1.444c-1.112,0.386-2.546,0.284-3.776,0.652
					c-2.847,0.855-5.349,2.686-8.582,2.622c-6.784,3.503-16.809,1.118-24.442,2.838c-3.293-2.22-7.627-3.55-12.984-3.994
					c-3.176-2.105-7.832-2.944-12.04-4.16c-0.773,0.025-0.377,1.406-1.474,1.055c-0.116-0.72,0.451-0.647,0.335-1.372
					c-2.582-2.097-6.469-4.016-9.354-5.82c-1.145-0.716-1.978-1.897-3.069-2.562c-1.184-0.721-2.764-0.822-3.835-1.682
					c-3.203-2.576-6.75-8.955-11.026-5.249c2.182,2.067,2.874,6.435,7,6.112c0.371,0.623-0.343,1.114,0.343,1.661
					c2.701,0.347,4.77,1.241,5.337,3.427c1.029,0.348,1.453-0.763,2.101-0.08c0.153,0.593,0.21,1.262,0.076,2.101
					c1.822,1.652,5.619,3.478,8.042,1.533c1.489,0.589,2.054,1.886,1.842,3.397c3.501,1.614,6.64,3.537,11.344,4.109
					c0.883,2.278,4.825,1.164,7.756,2.211c1.002,0.355,1.724,1.372,2.446,1.58c1.343,0.381,2.894,0.008,4.173,0.309
					c1.052,0.25,1.823,0.975,2.708,1.136c2.065,0.368,4.005-0.14,5.544,0.644c0.793-0.085,1.094-0.745,1.925-0.788
					c2.387,1.924,4.358-0.021,6.788-0.428c1.16-0.194,2.198,0.53,3.048-0.237c6.223,1.949,10.683-0.894,16.262-2.516
					c1.256-0.368,2.389-0.254,3.312-0.687c1.352-0.627,2.292-1.682,3.647-2.059c2.12-0.585,3.284-0.83,4.36-2.236
					c0.565-0.056,0.475,0.462,1.142,0.317c2.063-2.639,6.49-2.537,7.469-6.435c1.984,0.123,2.101-1.927,4.096-1.792
					c0.348-0.436,0.523-1.071,0.815-1.567c2.349-1.66,5.376-3.473,7.435-5.973c0.495-0.602,0.576-1.575,1.099-2.249
					c1.926-2.47,4.556-4.639,5.668-7.265c0.712-1.682,0.538-3.316,2.609-3.766c0.667-1.948,1.729-3.486,1.805-5.46
					c0.845-0.971,2.396-2.076,3.073-3.732c0.519-1.254,0.232-2.982,0.812-4.596c0.309-0.873,1.198-1.457,1.561-2.216
					c1.571-3.274,2.245-6.319,1.602-8.968c1.584-3.244,3.545-8.896,2.318-12.407c0.316-0.563,0.985-0.712,1.053-1.554
					c-0.053-6.054,0.565-10.866,0.578-17.194c-1.478-4.719-2.738-9.807-2.583-15.339c-0.841-3.469-2.839-5.943-3.729-9.366
					c-1.05-0.614-1.272-1.944-2.378-2.503c-0.708-0.695-2.167-0.741-2.928-1.385c-0.272-4.825-2.876-7.642-5.761-10.217
					c-0.245-0.292-0.201-0.839-0.127-1.406c-2.535-0.347-1.938-3.389-3.628-4.465c-1.567-0.263-2.633,0.831-3.459-0.491
					c0.233-0.483,0.629-0.775,1.442-0.589c-0.37-0.873-1.249-3.016-2.429-1.813c-0.331-2.317-2.9-2.707-4.607-3.838
					c-0.817-0.11-0.538,1.055-1.459,0.822c-1.832-0.665-1.923-2.825-2.7-4.393c-1.678-0.627-3.548-1.352-5.099-0.381
					c-0.544-1.555-0.716-3.431-2.753-3.702c-0.094,0.733,0.557,0.822,0.343,1.661c-1.048,0.542-2.342,0.805-2.722,2.122
					c-1.921-0.767-2.603,0.208-4.223,0.39c-0.25-0.826,0.635-1.466,0.207-2.779c0.659,0.004,0.996-0.356,1.658-0.347
					C146.049,31.009,143.835,29.696,141.006,30.793z"/>
				<path fill-rule="evenodd" clip-rule="evenodd" fill="#233E99" d="M147.124,33.11c-0.662-0.009-0.999,0.352-1.658,0.347
					c0.428,1.313-0.457,1.953-0.207,2.779c1.62-0.182,2.302-1.156,4.223-0.39c0.38-1.317,1.674-1.58,2.722-2.122
					c0.214-0.839-0.437-0.928-0.343-1.661c2.037,0.271,2.209,2.147,2.753,3.702c1.551-0.97,3.421-0.246,5.099,0.381
					c0.777,1.567,0.868,3.728,2.7,4.393c0.921,0.233,0.642-0.932,1.459-0.822c1.707,1.131,4.276,1.521,4.607,3.838
					c1.18-1.203,2.059,0.94,2.429,1.813c-0.813-0.187-1.209,0.106-1.442,0.589c0.826,1.322,1.892,0.229,3.459,0.491
					c1.69,1.076,1.093,4.118,3.628,4.465c-0.074,0.567-0.118,1.114,0.127,1.406c2.885,2.576,5.488,5.393,5.761,10.217
					c0.761,0.644,2.22,0.69,2.928,1.385c1.105,0.559,1.328,1.889,2.378,2.503c0.89,3.423,2.888,5.896,3.729,9.366
					c-0.155,5.532,1.105,10.62,2.583,15.339c-0.013,6.328-0.631,11.141-0.578,17.194c-0.067,0.842-0.736,0.99-1.053,1.554
					c1.227,3.512-0.734,9.163-2.318,12.407c0.644,2.648-0.03,5.693-1.602,8.968c-0.362,0.759-1.252,1.343-1.561,2.216
					c-0.579,1.613-0.293,3.342-0.812,4.596c-0.678,1.656-2.229,2.762-3.073,3.732c-0.076,1.974-1.138,3.512-1.805,5.46
					c-2.071,0.449-1.897,2.084-2.609,3.766c-1.112,2.626-3.742,4.795-5.668,7.265c-0.522,0.674-0.604,1.647-1.099,2.249
					c-2.059,2.5-5.086,4.312-7.435,5.973c-0.292,0.496-0.468,1.132-0.815,1.567c-1.995-0.135-2.111,1.915-4.096,1.792
					c-0.979,3.897-5.405,3.796-7.469,6.435c-0.667,0.145-0.576-0.373-1.142-0.317c-1.076,1.406-2.24,1.651-4.36,2.236
					c-1.355,0.377-2.296,1.432-3.647,2.059c-0.924,0.433-2.057,0.318-3.312,0.687c-5.579,1.622-10.039,4.465-16.262,2.516
					c-0.85,0.768-1.888,0.043-3.048,0.237c-2.43,0.407-4.401,2.352-6.788,0.428c-0.831,0.043-1.132,0.703-1.925,0.788
					c-1.539-0.783-3.479-0.275-5.544-0.644c-0.885-0.161-1.656-0.886-2.708-1.136c-1.279-0.301-2.83,0.072-4.173-0.309
					c-0.722-0.208-1.444-1.225-2.446-1.58c-2.931-1.047-6.873,0.067-7.756-2.211c-4.704-0.572-7.843-2.495-11.344-4.109
					c0.212-1.512-0.354-2.809-1.842-3.397c-2.423,1.944-6.221,0.119-8.042-1.533c0.134-0.839,0.077-1.508-0.076-2.101
					c-0.648-0.683-1.072,0.428-2.101,0.08c-0.567-2.186-2.637-3.08-5.337-3.427c-0.686-0.547,0.028-1.038-0.343-1.661
					c-4.126,0.322-4.818-4.045-7-6.112c4.276-3.706,7.824,2.673,11.026,5.249c1.071,0.859,2.651,0.961,3.835,1.682
					c1.091,0.665,1.924,1.847,3.069,2.562c2.885,1.805,6.771,3.724,9.354,5.82c0.116,0.725-0.451,0.652-0.335,1.372
					c1.097,0.352,0.701-1.029,1.474-1.055c4.208,1.216,8.864,2.055,12.04,4.16c5.357,0.444,9.691,1.774,12.984,3.994
					c7.633-1.72,17.658,0.665,24.442-2.838c3.233,0.063,5.735-1.767,8.582-2.622c1.23-0.368,2.664-0.267,3.776-0.652
					c0.934-0.317,1.629-1.136,2.439-1.444c0.975-0.373,2.004-0.183,3.062-0.475c2.11-0.585,4.78-2.651,7.066-4.135
					c1.478-0.957,2.956-2.092,3.949-2.965c3.082-2.72,5.329-6.405,8.172-9.646c1.118-1.271,2.399-2.097,3.27-3.249
					c1.697-2.232,3.872-5.324,5.24-7.765c1.312-2.334,1.665-5.748,3.814-7.408c0.4-4.999,3.343-9.404,2.673-14.014
					c3.332-10.572,2.73-25.788,0.591-36.064c-1.526-7.337-2.291-15.165-6.692-19.604c-0.089-0.72-0.404-1.245-0.557-1.906
					c-1.661-2.474-3.982-4.38-5.046-7.366c-4.342-2.109-4.032-9.158-9.291-9.781c-1.855-3.312-6.708-4.045-9.033-6.964
					c-1.17-0.102-1.346,0.199-2.315-0.169c-0.156-0.512-0.542-0.834-0.343-1.656c-3.569-0.466-5.81-2.08-8.116-3.634
					c-4.865-0.796-8.379-2.762-12.007-4.622c0.749-1.394,4.117,0.246,4.971-1.029c2.359,0.953,4.295-1.419,6.043,0.22
					C143.835,29.696,146.049,31.009,147.124,33.11z M62.991,164.777c0.787,0.242,0.998-0.187,1.422-0.364
					c-0.091-0.711-0.425-1.22-1.302-1.262C62.758,163.439,62.682,164.443,62.991,164.777z"/>
			</g>
		</g>
	</g>
</g>
</svg>
